<?xml version="1.0" standalone="no"?>
<!DOCTYPE svg PUBLIC "-//W3C//DTD SVG 20010904//EN"
 "http://www.w3.org/TR/2001/REC-SVG-20010904/DTD/svg10.dtd">
<svg version="1.0" xmlns="http://www.w3.org/2000/svg"
 width="700.000000pt" height="700.000000pt" viewBox="0 0 700.000000 700.000000"
 preserveAspectRatio="xMidYMid meet">
<metadata>
Created by potrace 1.11, written by Peter Selinger 2001-2013
</metadata>
<g transform="translate(0.000000,700.000000) scale(0.100000,-0.100000)"
fill="#000000" stroke="none">
<path d="M2 5601 c3 -771 8 -1404 10 -1406 2 -3 175 47 384 111 349 106 613
186 1384 419 809 245 1471 446 1488 452 9 4 12 -54 12 -269 l0 -275 -372 -112
c-205 -63 -533 -162 -728 -221 -575 -175 -1604 -486 -1895 -574 l-270 -82 -3
-221 -2 -222 27 9 c16 5 273 83 573 174 652 197 643 194 1755 531 484 146 888
268 898 271 16 5 17 -12 17 -268 l0 -273 -1635 -495 -1635 -495 0 -221 0 -221
503 153 c276 84 999 303 1607 487 608 185 1117 338 1133 342 l27 7 -2 -273 -3
-273 -1632 -495 -1633 -495 0 -219 0 -219 23 6 c13 3 736 222 1608 486 871
265 1596 484 1612 487 l27 6 0 -272 c0 -208 -3 -273 -12 -276 -7 -2 -728 -220
-1603 -485 -875 -265 -1605 -486 -1623 -491 l-32 -11 0 -219 c0 -120 2 -219 4
-219 3 0 236 70 518 156 282 85 608 184 723 219 116 35 663 201 1217 369 554
168 1015 306 1023 306 9 0 57 -15 108 -34 51 -19 828 -307 1727 -640 899 -332
1643 -608 1653 -611 16 -7 17 111 17 2379 0 1312 -3 2386 -6 2386 -3 0 -124
-36 -269 -80 l-262 -79 -394 145 c-217 81 -397 149 -401 153 -4 3 133 48 305
100 348 105 781 236 930 282 l97 30 0 220 c0 205 -1 220 -17 215 -209 -65
-1972 -598 -1983 -598 -13 -1 -764 273 -798 291 -7 4 178 65 410 135 233 71
592 179 798 242 206 63 647 196 980 297 l605 184 3 221 c2 176 0 221 -10 217
-52 -18 -3451 -1045 -3458 -1045 -7 0 -3281 1208 -3519 1298 -12 5 -13 -198
-9 -1397z"/>
</g>
</svg>
